<?xml version="1.0" encoding="UTF-8" standalone="no"?>
<!DOCTYPE svg PUBLIC "-//W3C//DTD SVG 1.1//EN" "http://www.w3.org/Graphics/SVG/1.1/DTD/svg11.dtd">
<svg width="100%" height="100%" viewBox="0 0 200 200" version="1.1" xmlns="http://www.w3.org/2000/svg" xmlns:xlink="http://www.w3.org/1999/xlink" xml:space="preserve" xmlns:serif="http://www.serif.com/" style="fill-rule:evenodd;clip-rule:evenodd;stroke-linejoin:round;stroke-miterlimit:2;">
    <g transform="matrix(2.92434,0,0,2.92434,-72964.7,-48233.5)">
        <path d="M24987.7,16494.4L24992.8,16495.2L24990.1,16512.4L24998,16496.9L25002.5,16499.2L24994.7,16514.7L25006.9,16502.4L25010.6,16506.1L24998.3,16518.3L25013.8,16510.5L25016.1,16515L25000.6,16522.9L25017.8,16520.2L25018.6,16525.3L25001.4,16528L25018.6,16530.7L25017.8,16535.8L25000.6,16533.1L25016.1,16541L25013.8,16545.5L24998.3,16537.7L25010.6,16549.9L25006.9,16553.6L24994.7,16541.3L25002.5,16556.8L24998,16559.1L24990.1,16543.6L24992.8,16560.8L24987.7,16561.6L24985,16544.4L24982.3,16561.6L24977.2,16560.8L24979.9,16543.6L24972,16559.1L24967.5,16556.8L24975.3,16541.3L24963.1,16553.6L24959.4,16549.9L24971.7,16537.7L24956.2,16545.5L24953.9,16541L24969.4,16533.1L24952.2,16535.8L24951.4,16530.7L24968.6,16528L24951.4,16525.3L24952.2,16520.2L24969.4,16522.9L24953.9,16515L24956.2,16510.5L24971.7,16518.3L24959.4,16506.1L24963.1,16502.4L24975.3,16514.7L24967.5,16499.2L24972,16496.9L24979.9,16512.4L24977.2,16495.2L24982.3,16494.4L24985,16511.6L24987.7,16494.4Z"/>
    </g>
</svg>
